<mxfile host="app.diagrams.net" modified="2024-02-13T06:38:24.861Z" agent="Mozilla/5.0 (Windows NT 10.0; Win64; x64) AppleWebKit/537.36 (KHTML, like Gecko) Chrome/121.0.0.0 Safari/537.36" version="21.4.0" etag="KnUFSdAGs6Rtj4zcCm2T" type="github">
  <diagram name="Page-1" id="7V3lcIkpxZxb3A5mRUOx">
    <mxGraphModel>
      <root>
        <mxCell id="0" />
        <mxCell id="1" parent="0" />
      </root>
    </mxGraphModel>
  </diagram>
</mxfile>
